<?xml version="1.0" encoding="UTF-8" standalone="no"?>
<svg
   xmlns:dc="http://purl.org/dc/elements/1.1/"
   xmlns:cc="http://creativecommons.org/ns#"
   xmlns:rdf="http://www.w3.org/1999/02/22-rdf-syntax-ns#"
   xmlns:svg="http://www.w3.org/2000/svg"
   xmlns="http://www.w3.org/2000/svg"
   viewBox="0 0 990 765"
   height="765"
   width="990"
   xml:space="preserve"
   version="1.1"
   id="svg2"><metadata
     id="metadata8"><rdf:RDF><cc:Work
         rdf:about=""><dc:format>image/svg+xml</dc:format><dc:type
           rdf:resource="http://purl.org/dc/dcmitype/StillImage" /></cc:Work></rdf:RDF></metadata><defs
     id="defs6"><clipPath
       id="clipPath16"
       clipPathUnits="userSpaceOnUse"><path
         id="path18"
         d="m 113.522,357.998 0,-13.144 -38.977,0 0,-20.756 37.016,0 0,-13.672 -37.186,0 0,-34.877 -14.992,0 0,82.449 54.139,0 z" /></clipPath><linearGradient
       id="linearGradient24"
       spreadMethod="pad"
       gradientTransform="matrix(0,82.448242,82.448242,0,86.452637,275.54883)"
       gradientUnits="userSpaceOnUse"
       y2="0"
       x2="1"
       y1="0"
       x1="0"><stop
         id="stop26"
         offset="0"
         style="stop-opacity:1;stop-color:#4d4c4e" /><stop
         id="stop28"
         offset="0.552155"
         style="stop-opacity:1;stop-color:#606163" /><stop
         id="stop30"
         offset="0.975464"
         style="stop-opacity:1;stop-color:#858789" /><stop
         id="stop32"
         offset="1"
         style="stop-opacity:1;stop-color:#858789" /></linearGradient><clipPath
       id="clipPath40"
       clipPathUnits="userSpaceOnUse"><path
         id="path42"
         d="m 180.95,357.997 0,-50.041 c 0,-13.147 -6.727,-19.726 -20.181,-19.726 l 0,0 c -13.452,0 -20.18,6.579 -20.18,19.726 l 0,0 0,50.041 -15.277,0 0,-50.041 c 0,-21.986 11.818,-32.984 35.457,-32.984 l 0,0 c 23.64,0 35.459,10.998 35.459,32.984 l 0,0 0,50.041 -15.278,0 z" /></clipPath><linearGradient
       id="linearGradient48"
       spreadMethod="pad"
       gradientTransform="matrix(0,83.025391,83.025391,0,160.77002,274.97168)"
       gradientUnits="userSpaceOnUse"
       y2="0"
       x2="1"
       y1="0"
       x1="0"><stop
         id="stop50"
         offset="0"
         style="stop-opacity:1;stop-color:#4d4c4e" /><stop
         id="stop52"
         offset="0.552155"
         style="stop-opacity:1;stop-color:#606163" /><stop
         id="stop54"
         offset="0.975464"
         style="stop-opacity:1;stop-color:#858789" /><stop
         id="stop56"
         offset="1"
         style="stop-opacity:1;stop-color:#858789" /></linearGradient><clipPath
       id="clipPath64"
       clipPathUnits="userSpaceOnUse"><path
         id="path66"
         d="m 269.999,357.997 0,-58.923 -45.837,58.923 -15.277,0 0,-82.449 14.702,0 0,60.197 45.834,-60.197 15.284,0 0,82.449 -14.706,0 z" /></clipPath><linearGradient
       id="linearGradient72"
       spreadMethod="pad"
       gradientTransform="matrix(0,82.448242,82.448242,0,246.79443,275.54883)"
       gradientUnits="userSpaceOnUse"
       y2="0"
       x2="1"
       y1="0"
       x1="0"><stop
         id="stop74"
         offset="0"
         style="stop-opacity:1;stop-color:#4d4c4e" /><stop
         id="stop76"
         offset="0.552155"
         style="stop-opacity:1;stop-color:#606163" /><stop
         id="stop78"
         offset="0.975464"
         style="stop-opacity:1;stop-color:#858789" /><stop
         id="stop80"
         offset="1"
         style="stop-opacity:1;stop-color:#858789" /></linearGradient><clipPath
       id="clipPath88"
       clipPathUnits="userSpaceOnUse"><path
         id="path90"
         d="m 297.359,357.997 0,-82.449 35.741,0 c 25.756,0 38.633,14.493 38.633,43.474 l 0,0 c 0,25.985 -12.877,38.975 -38.633,38.975 l 0,0 -35.741,0 z m 15.273,-13.261 18.167,0 c 17.106,0 25.656,-8.569 25.656,-25.714 l 0,0 c 0,-20.148 -8.55,-30.209 -25.656,-30.209 l 0,0 -18.167,0 0,55.923 z" /></clipPath><linearGradient
       id="linearGradient96"
       spreadMethod="pad"
       gradientTransform="matrix(0,82.448242,82.448242,0,334.5459,275.54883)"
       gradientUnits="userSpaceOnUse"
       y2="0"
       x2="1"
       y1="0"
       x1="0"><stop
         id="stop98"
         offset="0"
         style="stop-opacity:1;stop-color:#4d4c4e" /><stop
         id="stop100"
         offset="0.552155"
         style="stop-opacity:1;stop-color:#606163" /><stop
         id="stop102"
         offset="0.975464"
         style="stop-opacity:1;stop-color:#858789" /><stop
         id="stop104"
         offset="1"
         style="stop-opacity:1;stop-color:#858789" /></linearGradient><linearGradient
       id="linearGradient120"
       spreadMethod="pad"
       gradientTransform="matrix(0,82.448242,82.448242,0,569.0918,275.54883)"
       gradientUnits="userSpaceOnUse"
       y2="0"
       x2="1"
       y1="0"
       x1="0"><stop
         id="stop122"
         offset="0"
         style="stop-opacity:1;stop-color:#4d4c4e" /><stop
         id="stop124"
         offset="0.552155"
         style="stop-opacity:1;stop-color:#606163" /><stop
         id="stop126"
         offset="0.975464"
         style="stop-opacity:1;stop-color:#858789" /><stop
         id="stop128"
         offset="1"
         style="stop-opacity:1;stop-color:#858789" /></linearGradient><linearGradient
       id="linearGradient144"
       spreadMethod="pad"
       gradientTransform="matrix(0,82.448242,82.448242,0,627.2959,275.54883)"
       gradientUnits="userSpaceOnUse"
       y2="0"
       x2="1"
       y1="0"
       x1="0"><stop
         id="stop146"
         offset="0"
         style="stop-opacity:1;stop-color:#4d4c4e" /><stop
         id="stop148"
         offset="0.552155"
         style="stop-opacity:1;stop-color:#606163" /><stop
         id="stop150"
         offset="0.975464"
         style="stop-opacity:1;stop-color:#858789" /><stop
         id="stop152"
         offset="1"
         style="stop-opacity:1;stop-color:#858789" /></linearGradient><linearGradient
       id="linearGradient168"
       spreadMethod="pad"
       gradientTransform="matrix(0,82.448242,82.448242,0,705.13574,275.54883)"
       gradientUnits="userSpaceOnUse"
       y2="0"
       x2="1"
       y1="0"
       x1="0"><stop
         id="stop170"
         offset="0"
         style="stop-opacity:1;stop-color:#4d4c4e" /><stop
         id="stop172"
         offset="0.552155"
         style="stop-opacity:1;stop-color:#606163" /><stop
         id="stop174"
         offset="0.975464"
         style="stop-opacity:1;stop-color:#858789" /><stop
         id="stop176"
         offset="1"
         style="stop-opacity:1;stop-color:#858789" /></linearGradient><linearGradient
       id="linearGradient192"
       spreadMethod="pad"
       gradientTransform="matrix(0,82.448242,82.448242,0,413.27734,275.54883)"
       gradientUnits="userSpaceOnUse"
       y2="0"
       x2="1"
       y1="0"
       x1="0"><stop
         id="stop194"
         offset="0"
         style="stop-opacity:1;stop-color:#4d4c4e" /><stop
         id="stop196"
         offset="0.552155"
         style="stop-opacity:1;stop-color:#606163" /><stop
         id="stop198"
         offset="0.975464"
         style="stop-opacity:1;stop-color:#858789" /><stop
         id="stop200"
         offset="1"
         style="stop-opacity:1;stop-color:#858789" /></linearGradient><linearGradient
       id="linearGradient216"
       spreadMethod="pad"
       gradientTransform="matrix(0,82.448242,82.448242,0,508.64844,275.54883)"
       gradientUnits="userSpaceOnUse"
       y2="0"
       x2="1"
       y1="0"
       x1="0"><stop
         id="stop218"
         offset="0"
         style="stop-opacity:1;stop-color:#4d4c4e" /><stop
         id="stop220"
         offset="0.552155"
         style="stop-opacity:1;stop-color:#606163" /><stop
         id="stop222"
         offset="0.975464"
         style="stop-opacity:1;stop-color:#858789" /><stop
         id="stop224"
         offset="1"
         style="stop-opacity:1;stop-color:#858789" /></linearGradient><linearGradient
       id="linearGradient240"
       spreadMethod="pad"
       gradientTransform="matrix(-113.05128,-82.572037,-59.605545,121.14432,590.31152,282.13672)"
       gradientUnits="userSpaceOnUse"
       y2="0"
       x2="1"
       y1="0"
       x1="0"><stop
         id="stop242"
         offset="0"
         style="stop-opacity:1;stop-color:#00b1f0" /><stop
         id="stop244"
         offset="0.588959"
         style="stop-opacity:1;stop-color:#334b97" /><stop
         id="stop246"
         offset="1"
         style="stop-opacity:1;stop-color:#334b97" /></linearGradient><linearGradient
       id="linearGradient262"
       spreadMethod="pad"
       gradientTransform="matrix(-118.4567,77.068741,77.068741,118.45671,432.55273,201.72559)"
       gradientUnits="userSpaceOnUse"
       y2="0"
       x2="1"
       y1="0"
       x1="0"><stop
         id="stop264"
         offset="0"
         style="stop-opacity:1;stop-color:#00b1f0" /><stop
         id="stop266"
         offset="0.852768"
         style="stop-opacity:1;stop-color:#334b97" /><stop
         id="stop268"
         offset="1"
         style="stop-opacity:1;stop-color:#334b97" /></linearGradient><linearGradient
       id="linearGradient284"
       spreadMethod="pad"
       gradientTransform="matrix(-120.88814,78.65065,78.65065,120.88814,420.92187,183.76172)"
       gradientUnits="userSpaceOnUse"
       y2="0"
       x2="1"
       y1="0"
       x1="0"><stop
         id="stop286"
         offset="0"
         style="stop-opacity:1;stop-color:#00b1f0" /><stop
         id="stop288"
         offset="0.852768"
         style="stop-opacity:1;stop-color:#334b97" /><stop
         id="stop290"
         offset="1"
         style="stop-opacity:1;stop-color:#334b97" /></linearGradient><linearGradient
       id="linearGradient306"
       spreadMethod="pad"
       gradientTransform="matrix(-19201.334,-26040.156,-26040.156,19201.334,260.17676,-7.5966797)"
       gradientUnits="userSpaceOnUse"
       y2="0"
       x2="1"
       y1="0"
       x1="0"><stop
         id="stop308"
         offset="0"
         style="stop-opacity:1;stop-color:#00b1f0" /><stop
         id="stop310"
         offset="1"
         style="stop-opacity:1;stop-color:#334b97" /></linearGradient><clipPath
       id="clipPath318"
       clipPathUnits="userSpaceOnUse"><path
         id="path320"
         d="M 0,612 792,612 792,0 0,0 0,612 Z" /></clipPath><linearGradient
       id="linearGradient358"
       spreadMethod="pad"
       gradientTransform="matrix(-59.770248,38.336716,-28.128693,-60.667709,290.62402,360.93848)"
       gradientUnits="userSpaceOnUse"
       y2="0"
       x2="1"
       y1="0"
       x1="0"><stop
         id="stop360"
         offset="0"
         style="stop-opacity:1;stop-color:#00b1f0" /><stop
         id="stop362"
         offset="1"
         style="stop-opacity:1;stop-color:#334b97" /></linearGradient><linearGradient
       id="linearGradient378"
       spreadMethod="pad"
       gradientTransform="matrix(-59.12645,37.923782,-27.825729,-60.014252,288.82617,358.60254)"
       gradientUnits="userSpaceOnUse"
       y2="0"
       x2="1"
       y1="0"
       x1="0"><stop
         id="stop380"
         offset="0"
         style="stop-opacity:1;stop-color:#00b1f0" /><stop
         id="stop382"
         offset="1"
         style="stop-opacity:1;stop-color:#334b97" /></linearGradient><linearGradient
       id="linearGradient398"
       spreadMethod="pad"
       gradientTransform="matrix(0,-47.877441,-47.877441,0,384.71973,419.4165)"
       gradientUnits="userSpaceOnUse"
       y2="0"
       x2="1"
       y1="0"
       x1="0"><stop
         id="stop400"
         offset="0"
         style="stop-opacity:1;stop-color:#2d77bc" /><stop
         id="stop402"
         offset="1"
         style="stop-opacity:1;stop-color:#334b97" /></linearGradient><clipPath
       id="clipPath410"
       clipPathUnits="userSpaceOnUse"><path
         id="path412"
         d="M 0,612 792,612 792,0 0,0 0,612 Z" /></clipPath><linearGradient
       id="linearGradient438"
       spreadMethod="pad"
       gradientTransform="matrix(-16384,-16384,-16384,32767,-583.32129,-925.43555)"
       gradientUnits="userSpaceOnUse"
       y2="0"
       x2="1"
       y1="0"
       x1="0"><stop
         id="stop440"
         offset="0"
         style="stop-opacity:1;stop-color:#00b1f0" /><stop
         id="stop442"
         offset="1"
         style="stop-opacity:1;stop-color:#334b97" /></linearGradient></defs><g
     transform="matrix(1.25,0,0,-1.25,0,765)"
     id="g10"><g
       id="g12"><g
         clip-path="url(#clipPath16)"
         id="g14"><g
           id="g20"><g
             id="g22"><path
               id="path34"
               style="fill:url(#linearGradient24);stroke:none"
               d="m 113.522,357.998 0,-13.144 -38.977,0 0,-20.756 37.016,0 0,-13.672 -37.186,0 0,-34.877 -14.992,0 0,82.449 54.139,0 z" /></g></g></g></g><g
       id="g36"><g
         clip-path="url(#clipPath40)"
         id="g38"><g
           id="g44"><g
             id="g46"><path
               id="path58"
               style="fill:url(#linearGradient48);stroke:none"
               d="m 180.95,357.997 0,-50.041 c 0,-13.147 -6.727,-19.726 -20.181,-19.726 l 0,0 c -13.452,0 -20.18,6.579 -20.18,19.726 l 0,0 0,50.041 -15.277,0 0,-50.041 c 0,-21.986 11.818,-32.984 35.457,-32.984 l 0,0 c 23.64,0 35.459,10.998 35.459,32.984 l 0,0 0,50.041 -15.278,0 z" /></g></g></g></g><g
       id="g60"><g
         clip-path="url(#clipPath64)"
         id="g62"><g
           id="g68"><g
             id="g70"><path
               id="path82"
               style="fill:url(#linearGradient72);stroke:none"
               d="m 269.999,357.997 0,-58.923 -45.837,58.923 -15.277,0 0,-82.449 14.702,0 0,60.197 45.834,-60.197 15.284,0 0,82.449 -14.706,0 z" /></g></g></g></g><g
       id="g84"><g
         clip-path="url(#clipPath88)"
         id="g86"><g
           id="g92"><g
             id="g94"><path
               id="path106"
               style="fill:url(#linearGradient96);stroke:none"
               d="m 297.359,357.997 0,-82.449 35.741,0 c 25.756,0 38.633,14.493 38.633,43.474 l 0,0 c 0,25.985 -12.877,38.975 -38.633,38.975 l 0,0 -35.741,0 z m 15.273,-13.261 18.167,0 c 17.106,0 25.656,-8.569 25.656,-25.714 l 0,0 c 0,-20.148 -8.55,-30.209 -25.656,-30.209 l 0,0 -18.167,0 0,55.923 z" /></g></g></g></g><g
       id="g108"><g
         id="g110"><g
           id="g116"><g
             id="g118"><path
               id="path130"
               style="fill:url(#linearGradient120);stroke:none"
               d="m 561.451,275.548 15.281,0 0,82.449 -15.281,0 0,-82.449 z" /></g></g></g></g><g
       id="g132"><g
         id="g134"><g
           id="g140"><g
             id="g142"><path
               id="path154"
               style="fill:url(#linearGradient144);stroke:none"
               d="m 650.506,357.997 0,-58.923 -45.84,58.923 -15.281,0 0,-82.449 14.699,0 0,60.197 45.842,-60.197 15.281,0 0,82.449 -14.701,0 z" /></g></g></g></g><g
       id="g156"><g
         id="g158"><g
           id="g164"><g
             id="g166"><path
               id="path178"
               style="fill:url(#linearGradient168);stroke:none"
               d="m 673.861,357.997 0,-13.261 23.634,0 0,-69.188 15.282,0 0,69.188 23.634,0 0,13.261 -62.55,0 z" /></g></g></g></g><g
       id="g180"><g
         id="g182"><g
           id="g188"><g
             id="g190"><path
               id="path202"
               style="fill:url(#linearGradient192);stroke:none"
               d="m 404.686,357.997 -34.996,-82.449 15.68,0 27.161,66.71 13.489,-30.962 -17.121,0 -5.246,-13.262 26.406,0 10.371,-22.486 16.435,0 -35.747,82.449 -16.432,0 z" /></g></g></g></g><g
       id="g204"><g
         id="g206"><g
           id="g212"><g
             id="g214"><path
               id="path226"
               style="fill:url(#linearGradient216);stroke:none"
               d="m 536.612,357.997 -27.385,-62.554 -27.969,62.554 -15.853,0 0,-82.449 14.135,0 0,57.426 22.826,-57.426 13.027,0 22.376,57.426 0,-57.426 14.124,0 0,82.449 -15.281,0 z" /></g></g></g></g><g
       id="g228"><g
         id="g230"><g
           id="g236"><g
             id="g238"><path
               id="path248"
               style="fill:url(#linearGradient240);stroke:none"
               d="m 503.307,245.418 c -0.199,-0.217 -0.381,-0.44 -0.591,-0.653 l 0,0 c -1.06,-1.16 -2.147,-2.288 -3.232,-3.402 l 0,0 c 0.453,-0.302 0.898,-0.643 1.348,-0.932 l 0,0 c 0.932,-0.612 1.843,-1.211 2.767,-1.772 l 0,0 c 1.959,-1.168 3.921,-2.233 5.88,-3.233 l 0,0 c 0.902,-0.44 1.81,-0.875 2.713,-1.289 l 0,0 c 2.104,-0.964 4.213,-1.856 6.323,-2.594 l 0,0 c 0.716,-0.246 1.442,-0.446 2.155,-0.677 l 0,0 c 1.856,-0.583 3.696,-1.076 5.553,-1.492 l 0,0 c 0.787,-0.168 1.573,-0.351 2.371,-0.496 l 0,0 c 2.261,-0.404 4.503,-0.705 6.743,-0.835 l 0,0 c 0.607,-0.031 1.193,-0.015 1.809,-0.029 l 0,0 c 1.912,-0.048 3.809,0.005 5.698,0.159 l 0,0 c 0.584,0.049 1.172,0.075 1.76,0.143 l 0,0 c 2.26,0.271 4.484,0.698 6.697,1.289 l 0,0 c 0.535,0.132 1.074,0.319 1.613,0.472 l 0,0 c 2.001,0.603 3.981,1.328 5.916,2.191 l 0,0 c 0.32,0.145 0.66,0.258 0.971,0.412 l 0,0 c 0.348,0.159 0.679,0.359 1.021,0.531 l 0,0 c -14.811,-4.936 -30.273,-4.445 -42.873,2.715 l 0,0 c -4.089,2.327 -7.623,5.218 -10.669,8.492 l 0,0 c -0.918,0.773 -1.792,1.626 -2.638,2.532 l 0,0 c -0.447,-0.51 -0.884,-1.029 -1.335,-1.532" /></g></g></g></g><g
       id="g250"><g
         id="g252"><g
           id="g258"><g
             id="g260"><path
               id="path270"
               style="fill:url(#linearGradient262);stroke:none"
               d="m 431.95,201.788 c 0.252,0.06 0.5,0.108 0.748,0.167 l 0,0 c -0.002,0.005 -0.007,0.01 -0.018,0.016 l 0,0 c -0.241,-0.061 -0.485,-0.125 -0.73,-0.183" /></g></g></g></g><g
       id="g272"><g
         id="g274"><g
           id="g280"><g
             id="g282"><path
               id="path292"
               style="fill:url(#linearGradient284);stroke:none"
               d="m 299.42,261.453 c 8.615,-24.893 39.062,-46.978 48.018,-51.63 l 0,0 c 23.916,-12.435 52.536,-14.856 80.854,-8.854 l 0,0 c -23.742,-4.925 -47.534,-2.196 -67.57,9.534 l 0,0 c -7.857,4.599 -34.519,26.381 -42.131,50.95 l 0,0 -19.171,0 z" /></g></g></g></g><g
       id="g294"><g
         id="g296"><g
           id="g302"><g
             id="g304"><path
               id="path312"
               style="fill:url(#linearGradient306);stroke:none"
               d="m 591.261,261.453 c -0.023,-0.027 -0.044,-0.058 -0.069,-0.086 l 0,0 c -0.084,-0.099 -0.168,-0.199 -0.247,-0.297 l 0,0 c -0.381,-0.438 -0.778,-0.849 -1.172,-1.278 l 0,0 c -0.251,-0.274 -0.49,-0.556 -0.752,-0.822 l 0,0 c -0.036,-0.043 -0.073,-0.081 -0.113,-0.121 l 0,0 c -0.131,-0.136 -0.26,-0.268 -0.394,-0.409 l 0,0 c -0.628,-0.638 -1.26,-1.263 -1.925,-1.872 l 0,0 c -0.077,-0.083 -0.162,-0.166 -0.248,-0.241 l 0,0 c -0.031,-0.025 -0.068,-0.056 -0.098,-0.087 l 0,0 c -0.303,-0.271 -0.609,-0.534 -0.921,-0.799 l 0,0 c -0.438,-0.39 -0.872,-0.789 -1.324,-1.16 l 0,0 c -0.018,-0.013 -0.035,-0.027 -0.056,-0.038 l 0,0 c -0.235,-0.196 -0.476,-0.374 -0.717,-0.562 l 0,0 c -0.39,-0.314 -0.783,-0.625 -1.179,-0.928 l 0,0 c -0.171,-0.13 -0.338,-0.266 -0.506,-0.397 l 0,0 c -0.045,-0.026 -0.085,-0.058 -0.126,-0.089 l 0,0 c -0.515,-0.374 -1.033,-0.715 -1.554,-1.074 l 0,0 c -0.459,-0.316 -0.92,-0.629 -1.389,-0.935 l 0,0 c -0.757,-0.476 -1.505,-0.945 -2.264,-1.38 l 0,0 c -0.138,-0.079 -0.274,-0.141 -0.401,-0.217 l 0,0 c -0.409,-0.231 -0.821,-0.447 -1.234,-0.671 l 0,0 c -0.771,-0.407 -1.548,-0.787 -2.33,-1.155 l 0,0 c -0.424,-0.196 -0.842,-0.395 -1.275,-0.582 l 0,0 c -0.9,-0.384 -1.807,-0.747 -2.712,-1.077 l 0,0 c -0.423,-0.155 -0.843,-0.297 -1.258,-0.44 l 0,0 c -0.981,-0.324 -1.96,-0.631 -2.943,-0.882 l 0,0 c -0.333,-0.089 -0.674,-0.161 -1.002,-0.238 l 0,0 c -0.864,-0.209 -1.726,-0.386 -2.594,-0.538 l 0,0 c -0.373,-0.062 -0.741,-0.13 -1.113,-0.182 l 0,0 c -1.055,-0.156 -2.116,-0.278 -3.168,-0.345 l 0,0 c -0.287,-0.02 -0.561,-0.024 -0.851,-0.033 l 0,0 c -0.901,-0.041 -1.804,-0.044 -2.695,-0.022 l 0,0 c -0.282,0.005 -0.561,0.005 -0.833,0.022 l 0,0 c -1.069,0.053 -2.137,0.162 -3.187,0.312 l 0,0 c -0.26,0.039 -0.511,0.085 -0.769,0.133 l 0,0 c -0.955,0.156 -1.907,0.357 -2.834,0.604 l 0,0 c -0.161,0.04 -0.321,0.071 -0.474,0.113 l 0,0 c -1.041,0.289 -2.063,0.653 -3.064,1.05 l 0,0 c -0.233,0.093 -0.473,0.197 -0.697,0.29 l 0,0 c -1.022,0.438 -2.027,0.905 -2.993,1.462 l 0,0 c -0.967,0.545 -1.866,1.154 -2.738,1.788 l 0,0 c -0.22,0.16 -0.429,0.324 -0.645,0.491 l 0,0 c -0.719,0.558 -1.409,1.145 -2.061,1.761 l 0,0 c -0.19,0.181 -0.383,0.355 -0.562,0.535 l 0,0 c -0.509,0.515 -1.004,1.032 -1.474,1.574 l 0,0 c 0.029,-0.016 0.065,-0.035 0.094,-0.057 l 0,0 c -2.275,2.603 -4.059,5.601 -5.366,8.879 l 0,0 -23.006,0 c -0.142,-0.179 -0.282,-0.363 -0.426,-0.541 l 0,0 c -0.163,-0.19 -0.323,-0.394 -0.479,-0.586 l 0,0 c -0.724,-0.87 -1.498,-1.693 -2.255,-2.528 l 0,0 c -0.474,-0.545 -0.951,-1.103 -1.446,-1.637 l 0,0 c -0.072,-0.078 -0.134,-0.157 -0.212,-0.239 l 0,0 c -0.246,-0.268 -0.498,-0.527 -0.759,-0.802 l 0,0 c -1.211,-1.268 -2.439,-2.514 -3.699,-3.718 l 0,0 c -0.156,-0.157 -0.316,-0.319 -0.479,-0.47 l 0,0 c -0.065,-0.061 -0.13,-0.114 -0.196,-0.173 l 0,0 c -0.576,-0.546 -1.179,-1.056 -1.766,-1.592 l 0,0 c -0.848,-0.769 -1.68,-1.557 -2.545,-2.29 l 0,0 c -0.033,-0.027 -0.068,-0.058 -0.106,-0.083 l 0,0 c -0.453,-0.393 -0.921,-0.732 -1.379,-1.113 l 0,0 c -0.756,-0.616 -1.512,-1.236 -2.276,-1.833 l 0,0 c -0.325,-0.26 -0.643,-0.534 -0.977,-0.786 l 0,0 c -0.078,-0.059 -0.16,-0.117 -0.24,-0.175 l 0,0 c -0.983,-0.746 -1.983,-1.428 -2.985,-2.128 l 0,0 c -0.884,-0.626 -1.776,-1.26 -2.671,-1.854 l 0,0 c -1.45,-0.949 -2.892,-1.879 -4.359,-2.744 l 0,0 c -0.256,-0.149 -0.511,-0.279 -0.765,-0.428 l 0,0 c -0.792,-0.455 -1.584,-0.892 -2.375,-1.322 l 0,0 c -1.482,-0.804 -2.978,-1.568 -4.482,-2.282 l 0,0 c -0.817,-0.401 -1.625,-0.793 -2.451,-1.162 l 0,0 c -1.735,-0.768 -3.477,-1.477 -5.222,-2.139 l 0,0 c -0.807,-0.3 -1.609,-0.588 -2.418,-0.866 l 0,0 c -1.876,-0.645 -3.763,-1.248 -5.653,-1.757 l 0,0 c -0.639,-0.17 -1.288,-0.31 -1.933,-0.472 l 0,0 c -1.66,-0.406 -3.322,-0.757 -4.986,-1.053 l 0,0 c -0.712,-0.127 -1.423,-0.263 -2.135,-0.364 l 0,0 c -2.046,-0.313 -4.074,-0.546 -6.097,-0.687 l 0,0 c -0.548,-0.036 -1.084,-0.044 -1.643,-0.071 l 0,0 c -1.731,-0.074 -3.462,-0.089 -5.184,-0.038 l 0,0 c -0.535,0.013 -1.062,0.013 -1.598,0.038 l 0,0 c -2.064,0.111 -4.108,0.32 -6.129,0.627 l 0,0 c -0.49,0.075 -0.992,0.171 -1.485,0.257 l 0,0 c -1.84,0.311 -3.658,0.715 -5.453,1.2 l 0,0 c -0.299,0.077 -0.608,0.14 -0.896,0.227 l 0,0 c -2.016,0.576 -3.971,1.286 -5.911,2.079 l 0,0 c -0.45,0.187 -0.895,0.384 -1.342,0.575 l 0,0 c -1.958,0.862 -3.88,1.799 -5.746,2.89 l 0,0 c -1.857,1.085 -3.589,2.295 -5.262,3.55 l 0,0 c -0.424,0.32 -0.834,0.64 -1.242,0.968 l 0,0 c -1.384,1.113 -2.717,2.273 -3.97,3.495 l 0,0 c -0.364,0.353 -0.731,0.699 -1.079,1.058 l 0,0 c -0.982,1.01 -1.935,2.047 -2.83,3.118 l 0,0 c 0.053,-0.035 0.118,-0.069 0.172,-0.109 l 0,0 c -4.461,5.254 -7.953,11.31 -10.486,17.96 l 0,0 -11.472,0 -44.103,0 c 7.612,-24.569 34.274,-46.351 42.131,-50.95 l 0,0 c 20.036,-11.73 43.828,-14.459 67.57,-9.534 l 0,0 c 1.219,0.258 2.438,0.53 3.658,0.819 l 0,0 c 0.245,0.058 0.489,0.122 0.73,0.183 l 0,0 c 18.403,4.549 36.636,13.653 52.9,26.728 l 0,0 c 0,-0.009 0.005,-0.009 0.005,-0.009 l 0,0 c 0.038,0.031 0.068,0.071 0.106,0.087 l 0,0 c 2.956,2.385 5.844,4.886 8.655,7.525 l 0,0 c 0.131,0.122 0.257,0.253 0.385,0.368 l 0,0 c 1.612,1.521 3.191,3.092 4.753,4.693 l 0,0 c 1.085,1.114 2.172,2.242 3.232,3.402 l 0,0 c 0.21,0.213 0.392,0.436 0.591,0.653 l 0,0 c 0.451,0.503 0.888,1.022 1.335,1.532 l 0,0 c 0.846,-0.906 1.72,-1.759 2.638,-2.532 l 0,0 c 3.046,-3.274 6.58,-6.165 10.669,-8.492 l 0,0 c 12.6,-7.16 28.062,-7.651 42.873,-2.715 l 0,0 c 7.682,2.56 15.198,6.56 22.043,11.895 l 0,0 0.005,0 c 0.019,0.015 0.032,0.031 0.05,0.045 l 0,0 c 1.543,1.201 3.04,2.463 4.502,3.793 l 0,0 c 0.066,0.066 0.136,0.129 0.203,0.188 l 0,0 c 1.42,1.304 2.807,2.659 4.149,4.084 l 0,0 c 0.1,0.108 0.204,0.22 0.312,0.33 l 0,0 c 1.308,1.406 2.579,2.861 3.805,4.379 l 0,0 c 0.093,0.116 0.177,0.227 0.261,0.344 l 0,0 c 0.822,1.027 1.594,2.108 2.369,3.184 l 0,0 -7.26,0 z" /></g></g></g></g><g
       id="g314"><g
         clip-path="url(#clipPath318)"
         id="g316"><g
           transform="translate(318.5107,263.8916)"
           id="g322"><path
             id="path324"
             style="fill:#ffffff;fill-opacity:1;fill-rule:nonzero;stroke:none"
             d="M 0,0 9.479,0 0,0 Z" /></g><g
           transform="translate(318.5854,261.4688)"
           id="g326"><path
             id="path328"
             style="fill:#ffffff;fill-opacity:1;fill-rule:nonzero;stroke:none"
             d="m 0,0 -19.171,0 c 0.002,-0.005 0.004,-0.011 0.005,-0.016 l 19.171,0 C 0.004,-0.011 0.001,-0.005 0,0" /></g><g
           transform="translate(362.6934,261.4531)"
           id="g330"><path
             id="path332"
             style="fill:#ffffff;fill-opacity:1;fill-rule:nonzero;stroke:none"
             d="m 0,0 11.473,0 c -0.016,0.043 -0.035,0.086 -0.052,0.128 l -44.032,0 -9.163,0 -2.373,0 c 0.011,-0.039 0.026,-0.076 0.039,-0.112 l 44.101,0 C -0.004,0.011 -0.002,0.005 0,0" /></g><g
           transform="translate(524.918,261.7031)"
           id="g334"><path
             id="path336"
             style="fill:#ffffff;fill-opacity:1;fill-rule:nonzero;stroke:none"
             d="m 0,0 -22.365,0 c -0.02,-0.042 -0.041,-0.082 -0.057,-0.122 l -0.374,0 c -0.033,-0.041 -0.067,-0.085 -0.1,-0.128 l 23.005,0 C 0.074,-0.164 0.033,-0.085 0,0" /></g><g
           transform="translate(591.4629,261.7031)"
           id="g338"><path
             id="path340"
             style="fill:#ffffff;fill-opacity:1;fill-rule:nonzero;stroke:none"
             d="m 0,0 c -0.064,-0.084 -0.133,-0.168 -0.201,-0.25 l 7.259,0 C 7.117,-0.166 7.178,-0.084 7.237,0 L 0,0 Z" /></g><g
           transform="translate(362.6934,261.4531)"
           id="g342"><path
             id="path344"
             style="fill:#ffffff;fill-opacity:1;fill-rule:nonzero;stroke:none"
             d="m 0,0 c -0.002,0.005 -0.004,0.011 -0.007,0.016 l -44.101,0 C -44.106,0.011 -44.104,0.005 -44.103,0 L 0,0 Z" /></g></g></g><g
       id="g346"><g
         id="g348"><g
           id="g354"><g
             id="g356"><path
               id="path364"
               style="fill:url(#linearGradient358);stroke:none"
               d="m 270.384,394.62 c -0.322,-0.013 -0.631,-0.019 -0.95,-0.039 l 0,0 c -1.179,-0.088 -2.364,-0.233 -3.551,-0.424 l 0,0 c -0.411,-0.066 -0.826,-0.148 -1.241,-0.226 l 0,0 c -0.965,-0.186 -1.932,-0.402 -2.9,-0.654 l 0,0 c -0.371,-0.097 -0.747,-0.187 -1.12,-0.295 l 0,0 c -1.098,-0.31 -2.197,-0.682 -3.292,-1.083 l 0,0 c -0.465,-0.174 -0.934,-0.35 -1.402,-0.538 l 0,0 c -1.016,-0.409 -2.032,-0.847 -3.037,-1.322 l 0,0 c -0.48,-0.228 -0.949,-0.471 -1.426,-0.716 l 0,0 c -0.874,-0.447 -1.744,-0.919 -2.604,-1.415 l 0,0 c -0.462,-0.268 -0.924,-0.538 -1.385,-0.823 l 0,0 c -0.143,-0.089 -0.296,-0.169 -0.444,-0.262 l 0,0 c -0.854,-0.535 -1.689,-1.11 -2.532,-1.696 l 0,0 c -0.525,-0.373 -1.039,-0.76 -1.555,-1.147 l 0,0 c -0.581,-0.435 -1.166,-0.857 -1.735,-1.316 l 0,0 c -0.05,-0.037 -0.095,-0.078 -0.141,-0.109 l 0,0 c -0.193,-0.159 -0.374,-0.327 -0.569,-0.49 l 0,0 c -0.447,-0.366 -0.881,-0.749 -1.32,-1.134 l 0,0 c -0.269,-0.231 -0.538,-0.448 -0.802,-0.688 l 0,0 c -0.021,-0.014 -0.046,-0.033 -0.066,-0.047 l 0,0 c -0.5,-0.456 -0.987,-0.943 -1.479,-1.419 l 0,0 c -0.344,-0.332 -0.688,-0.648 -1.027,-0.987 l 0,0 c -0.035,-0.037 -0.075,-0.07 -0.111,-0.109 l 0,0 c -0.097,-0.09 -0.189,-0.19 -0.28,-0.289 l 0,0 c -0.735,-0.745 -1.448,-1.517 -2.151,-2.301 l 0,0 c -0.15,-0.171 -0.297,-0.332 -0.44,-0.495 l 0,0 c -0.044,-0.05 -0.085,-0.103 -0.131,-0.15 l 0,0 c -0.282,-0.33 -0.56,-0.673 -0.832,-1.008 l 0,0 c -0.442,-0.522 -0.893,-1.031 -1.314,-1.568 l 0,0 c -0.082,-0.112 -0.169,-0.222 -0.254,-0.331 l 0,0 8.152,0 c 15.857,17.606 39.088,23.675 55.866,13.215 l 0,0 c 1.213,-0.757 2.358,-1.586 3.441,-2.469 l 0,0 c -0.5,0.635 -0.999,1.271 -1.543,1.863 l 0,0 c -0.204,0.22 -0.418,0.437 -0.628,0.654 l 0,0 c -0.733,0.758 -1.503,1.482 -2.306,2.164 l 0,0 c -0.244,0.202 -0.48,0.402 -0.725,0.6 l 0,0 c -0.979,0.78 -1.987,1.529 -3.062,2.194 l 0,0 c -1.086,0.679 -2.204,1.255 -3.345,1.79 l 0,0 c -0.259,0.118 -0.515,0.241 -0.776,0.356 l 0,0 c -1.124,0.489 -2.267,0.93 -3.437,1.289 l 0,0 c -0.165,0.051 -0.344,0.089 -0.52,0.137 l 0,0 c -1.045,0.304 -2.104,0.547 -3.172,0.742 l 0,0 c -0.285,0.058 -0.577,0.117 -0.862,0.163 l 0,0 c -1.179,0.186 -2.366,0.318 -3.565,0.383 l 0,0 c -0.27,0.017 -0.54,0.018 -0.811,0.023 l 0,0 c -0.347,0.007 -0.695,0.011 -1.043,0.011 l 0,0 c -0.523,0 -1.047,-0.009 -1.573,-0.034 m -3.484,-2.558 c 0.97,0.238 1.934,0.442 2.902,0.619 l 0,0 c 0.412,0.071 0.825,0.148 1.242,0.211 l 0,0 c 1.182,0.178 2.371,0.316 3.545,0.395 l 0,0 c -1.174,-0.079 -2.363,-0.217 -3.545,-0.395 l 0,0 c -0.417,-0.063 -0.83,-0.14 -1.242,-0.211 l 0,0 c -0.968,-0.177 -1.932,-0.381 -2.902,-0.619 l 0,0 c -0.372,-0.092 -0.752,-0.173 -1.123,-0.274 l 0,0 c 0.371,0.101 0.751,0.182 1.123,0.274 m -26.687,-12.968 c -0.269,-0.311 -0.519,-0.636 -0.778,-0.951 l 0,0 c 0.259,0.315 0.509,0.64 0.778,0.951" /></g></g></g></g><g
       id="g366"><g
         id="g368"><g
           id="g374"><g
             id="g376"><path
               id="path384"
               style="fill:url(#linearGradient378);stroke:none"
               d="m 269.567,393.842 c -0.318,-0.014 -0.626,-0.019 -0.944,-0.039 l 0,0 c -1.169,-0.084 -2.344,-0.226 -3.521,-0.41 l 0,0 c -0.411,-0.063 -0.821,-0.143 -1.232,-0.218 l 0,0 c -0.959,-0.179 -1.92,-0.388 -2.883,-0.632 l 0,0 c -0.367,-0.093 -0.74,-0.18 -1.109,-0.284 l 0,0 c -1.09,-0.301 -2.18,-0.66 -3.265,-1.047 l 0,0 c -0.465,-0.168 -0.93,-0.341 -1.393,-0.519 l 0,0 c -1.01,-0.396 -2.016,-0.819 -3.016,-1.278 l 0,0 c -0.476,-0.221 -0.943,-0.456 -1.414,-0.692 l 0,0 c -0.868,-0.433 -1.731,-0.888 -2.585,-1.368 l 0,0 c -0.456,-0.259 -0.919,-0.519 -1.372,-0.794 l 0,0 c -0.997,-0.593 -1.98,-1.227 -2.956,-1.893 l 0,0 c -0.521,-0.359 -1.036,-0.734 -1.544,-1.108 l 0,0 c -0.818,-0.598 -1.628,-1.208 -2.425,-1.85 l 0,0 c -0.444,-0.354 -0.876,-0.723 -1.312,-1.095 l 0,0 c -0.787,-0.667 -1.561,-1.367 -2.326,-2.083 l 0,0 c -0.339,-0.321 -0.685,-0.626 -1.023,-0.953 l 0,0 c -1.05,-1.03 -2.082,-2.112 -3.083,-3.231 l 0,0 c -0.29,-0.319 -0.553,-0.65 -0.836,-0.974 l 0,0 c -0.511,-0.596 -1.005,-1.215 -1.498,-1.835 l 0,0 0.463,0 c 0.085,0.105 0.17,0.212 0.252,0.32 l 0,0 c 0.417,0.519 0.865,1.01 1.303,1.515 l 0,0 c 0.272,0.324 0.547,0.655 0.827,0.974 l 0,0 c 0.045,0.045 0.085,0.096 0.13,0.146 l 0,0 c 0.142,0.156 0.289,0.312 0.436,0.477 l 0,0 c 0.698,0.758 1.405,1.504 2.134,2.223 l 0,0 c 0.092,0.096 0.184,0.194 0.279,0.28 l 0,0 c 0.035,0.037 0.076,0.069 0.111,0.105 l 0,0 c 0.336,0.327 0.678,0.632 1.019,0.953 l 0,0 c 0.487,0.46 0.972,0.93 1.467,1.372 l 0,0 c 0.02,0.014 0.046,0.032 0.066,0.045 l 0,0 c 0.261,0.233 0.529,0.442 0.795,0.666 l 0,0 c 0.436,0.372 0.868,0.741 1.31,1.095 l 0,0 c 0.194,0.157 0.374,0.32 0.565,0.473 l 0,0 c 0.047,0.031 0.091,0.069 0.14,0.105 l 0,0 c 0.565,0.444 1.146,0.851 1.723,1.272 l 0,0 c 0.511,0.374 1.022,0.749 1.542,1.108 l 0,0 c 0.837,0.566 1.666,1.122 2.514,1.639 l 0,0 c 0.148,0.09 0.298,0.167 0.441,0.254 l 0,0 c 0.458,0.275 0.915,0.535 1.373,0.794 l 0,0 c 0.854,0.48 1.718,0.935 2.586,1.368 l 0,0 c 0.473,0.236 0.939,0.471 1.414,0.692 l 0,0 c 0.999,0.459 2.006,0.882 3.014,1.278 l 0,0 c 0.464,0.18 0.932,0.351 1.392,0.519 l 0,0 c 1.088,0.387 2.177,0.746 3.267,1.047 l 0,0 c 0.37,0.104 0.744,0.191 1.113,0.284 l 0,0 c 0.96,0.244 1.919,0.453 2.878,0.632 l 0,0 c 0.411,0.075 0.823,0.155 1.232,0.218 l 0,0 c 1.176,0.184 2.353,0.326 3.523,0.41 l 0,0 c 0.317,0.02 0.623,0.025 0.943,0.039 l 0,0 c 0.869,0.038 1.736,0.038 2.595,0.021 l 0,0 c -0.04,10e-4 -0.081,0.003 -0.122,0.004 l 0,0 c -0.377,0.012 -0.756,0.017 -1.137,0.017 l 0,0 c -0.614,0 -1.232,-0.014 -1.851,-0.042" /></g></g></g></g><g
       id="g386"><g
         id="g388"><g
           id="g394"><g
             id="g396"><path
               id="path404"
               style="fill:url(#linearGradient398);stroke:none"
               d="m 396.45,419.324 c -0.612,-0.029 -1.208,-0.034 -1.817,-0.081 l 0,0 c -0.849,-0.067 -1.7,-0.168 -2.551,-0.268 l 0,0 c -0.663,-0.098 -1.325,-0.187 -1.991,-0.301 l 0,0 c 0.658,0.113 1.313,0.202 1.969,0.299 l 0,0 c -1.395,-0.165 -2.792,-0.355 -4.193,-0.597 l 0,0 c -0.792,-0.135 -1.583,-0.298 -2.375,-0.46 l 0,0 c -1.846,-0.379 -3.689,-0.825 -5.534,-1.336 l 0,0 c -0.714,-0.202 -1.437,-0.382 -2.146,-0.597 l 0,0 c -2.101,-0.645 -4.191,-1.408 -6.275,-2.221 l 0,0 c -0.896,-0.352 -1.791,-0.721 -2.683,-1.098 l 0,0 c -1.937,-0.836 -3.876,-1.73 -5.798,-2.702 l 0,0 c -0.912,-0.468 -1.809,-0.966 -2.725,-1.466 l 0,0 c -1.668,-0.907 -3.325,-1.872 -4.968,-2.894 l 0,0 c -0.882,-0.543 -1.767,-1.093 -2.636,-1.668 l 0,0 c -0.278,-0.187 -0.567,-0.354 -0.851,-0.545 l 0,0 c -1.633,-1.089 -3.23,-2.266 -4.837,-3.466 l 0,0 c -0.996,-0.751 -1.986,-1.553 -2.971,-2.344 l 0,0 c -1.109,-0.889 -2.219,-1.749 -3.31,-2.693 l 0,0 c -0.089,-0.07 -0.178,-0.149 -0.269,-0.221 l 0,0 c -0.366,-0.318 -0.718,-0.665 -1.078,-0.992 l 0,0 c -0.857,-0.755 -1.691,-1.534 -2.528,-2.322 l 0,0 c -0.509,-0.475 -1.028,-0.912 -1.532,-1.404 l 0,0 c -0.044,-0.032 -0.085,-0.071 -0.12,-0.103 l 0,0 c -0.958,-0.93 -1.884,-1.926 -2.822,-2.898 l 0,0 c -0.658,-0.674 -1.322,-1.321 -1.964,-2.014 l 0,0 c -0.071,-0.075 -0.14,-0.142 -0.216,-0.219 l 0,0 c -0.134,-0.14 -0.265,-0.293 -0.396,-0.443 l 0,0 c 0.003,-0.003 0.005,-0.008 0.007,-0.011 l 0,0 c -0.248,-0.27 -0.492,-0.549 -0.738,-0.823 l 0,0 c -0.936,-1.032 -1.855,-2.092 -2.764,-3.164 l 0,0 c -0.246,-0.291 -0.505,-0.564 -0.749,-0.856 l 0,0 c -0.248,-0.298 -0.489,-0.586 -0.729,-0.878 l 0,0 c -0.037,-0.043 -0.075,-0.089 -0.112,-0.135 l 0,0 c -0.084,-0.1 -0.155,-0.207 -0.235,-0.304 l 0,0 c -0.1,-0.122 -0.193,-0.25 -0.292,-0.374 l 0,0 c -0.442,-0.559 -0.873,-1.13 -1.315,-1.691 l 0,0 c -1.148,-1.457 -2.248,-2.972 -3.346,-4.495 l 0,0 9.289,0 7.091,0 c 30.286,36.457 74.969,49.125 107.179,27.633 l 0,0 c 2.316,-1.556 4.496,-3.249 6.563,-5.053 l 0,0 c 0.068,-0.05 0.137,-0.089 0.198,-0.14 l 0,0 c -0.457,0.623 -0.961,1.205 -1.441,1.809 l 0,0 c -0.567,0.714 -1.113,1.446 -1.703,2.138 l 0,0 c -0.384,0.455 -0.791,0.893 -1.193,1.337 l 0,0 c -1.402,1.546 -2.879,3.023 -4.412,4.419 l 0,0 c -0.456,0.416 -0.91,0.823 -1.376,1.224 l 0,0 c -0.902,0.771 -1.82,1.526 -2.758,2.255 l 0,0 c -0.048,0.037 -0.097,0.075 -0.145,0.113 l 0,0 c -0.956,0.739 -1.933,1.451 -2.939,2.122 l 0,0 c -2.069,1.381 -4.209,2.563 -6.382,3.656 l 0,0 c -0.492,0.244 -0.989,0.493 -1.492,0.728 l 0,0 c -2.147,1.001 -4.32,1.898 -6.558,2.628 l 0,0 c -0.32,0.111 -0.662,0.186 -0.991,0.288 l 0,0 c -1.993,0.614 -4.013,1.112 -6.058,1.516 l 0,0 c -0.546,0.112 -1.097,0.233 -1.647,0.327 l 0,0 c -2.246,0.385 -4.51,0.651 -6.804,0.785 l 0,0 c -0.592,0.038 -1.183,0.038 -1.775,0.056 l 0,0 c -0.735,0.024 -1.473,0.037 -2.211,0.037 l 0,0 c -1.178,0 -2.36,-0.031 -3.545,-0.093" /></g></g></g></g><g
       id="g406"><g
         clip-path="url(#clipPath410)"
         id="g408"><g
           transform="translate(230.3667,371.5391)"
           id="g414"><path
             id="path416"
             style="fill:#ffffff;fill-opacity:1;fill-rule:nonzero;stroke:none"
             d="m 0,0 c 0.114,0.141 0.232,0.275 0.346,0.415 l -7.477,0 C -7.226,0.276 -7.322,0.138 -7.418,0 L 0,0 Z" /></g><g
           transform="translate(231.1685,371.9536)"
           id="g418"><path
             id="path420"
             style="fill:#ffffff;fill-opacity:1;fill-rule:nonzero;stroke:none"
             d="m 0,0 -0.456,0 c -0.113,-0.14 -0.232,-0.274 -0.346,-0.415 l 0.484,0 c 0.093,0.128 0.189,0.259 0.295,0.386 C -0.016,-0.02 -0.008,-0.009 0,0" /></g><g
           transform="translate(458.4199,371.5391)"
           id="g422"><path
             id="path424"
             style="fill:#ffffff;fill-opacity:1;fill-rule:nonzero;stroke:none"
             d="m 0,0 48.062,0 10.003,0 2.592,0 C 60.63,0.092 60.598,0.182 60.569,0.274 l -60.671,0 C -0.069,0.182 -0.032,0.092 0,0" /></g></g></g><g
       id="g426"><g
         id="g428"><g
           id="g434"><g
             id="g436"><path
               id="path444"
               style="fill:url(#linearGradient438);stroke:none"
               d="m 338.161,411.935 c 0,0.006 -0.004,0.006 -0.004,0.006 l 0,0 c -0.046,-0.039 -0.076,-0.083 -0.116,-0.107 l 0,0 c -3.286,-2.949 -6.49,-6.043 -9.613,-9.305 l 0,0 c -0.147,-0.155 -0.283,-0.312 -0.425,-0.46 l 0,0 c -2.322,-2.435 -4.578,-4.982 -6.797,-7.588 l 0,0 c -2.724,2.7 -5.752,5.123 -9.124,7.169 l 0,0 c -21.251,12.892 -49.828,7.638 -72.059,-10.88 l 0,0 c 0,0.005 -0.006,0.005 -0.006,0.005 l 0,0 c -0.023,-0.018 -0.039,-0.041 -0.056,-0.053 l 0,0 c -1.711,-1.426 -3.377,-2.918 -4.999,-4.497 l 0,0 c -0.076,-0.073 -0.148,-0.15 -0.226,-0.221 l 0,0 c -1.58,-1.543 -3.119,-3.151 -4.603,-4.84 l 0,0 c -0.12,-0.127 -0.228,-0.259 -0.347,-0.391 l 0,0 c -1.452,-1.668 -2.865,-3.39 -4.223,-5.19 l 0,0 c -0.103,-0.134 -0.2,-0.266 -0.294,-0.405 l 0,0 c -0.878,-1.172 -1.706,-2.407 -2.535,-3.639 l 0,0 7.603,0 0.463,0 c 0.086,0.105 0.171,0.212 0.253,0.32 l 0,0 c 0.417,0.519 0.865,1.01 1.303,1.515 l 0,0 c 0.272,0.324 0.547,0.655 0.827,0.974 l 0,0 c 0.045,0.045 0.085,0.096 0.129,0.146 l 0,0 c 0.142,0.156 0.289,0.312 0.437,0.477 l 0,0 c 0.697,0.758 1.405,1.504 2.135,2.223 l 0,0 c 0.09,0.096 0.181,0.194 0.277,0.28 l 0,0 c 0.036,0.037 0.076,0.069 0.111,0.105 l 0,0 c 0.336,0.327 0.679,0.632 1.019,0.953 l 0,0 c 0.487,0.46 0.972,0.93 1.468,1.372 l 0,0 c 0.02,0.014 0.044,0.032 0.065,0.045 l 0,0 c 0.263,0.233 0.529,0.442 0.796,0.666 l 0,0 c 0.436,0.372 0.867,0.741 1.31,1.095 l 0,0 c 0.194,0.157 0.373,0.32 0.564,0.473 l 0,0 c 0.047,0.031 0.092,0.069 0.142,0.105 l 0,0 c 0.564,0.444 1.144,0.851 1.721,1.272 l 0,0 c 0.511,0.374 1.023,0.749 1.544,1.108 l 0,0 c 0.835,0.566 1.665,1.122 2.512,1.639 l 0,0 c 0.147,0.09 0.298,0.167 0.441,0.254 l 0,0 c 0.458,0.275 0.916,0.535 1.374,0.794 l 0,0 c 0.854,0.48 1.718,0.935 2.586,1.368 l 0,0 c 0.472,0.236 0.937,0.471 1.414,0.692 l 0,0 c 0.998,0.459 2.006,0.882 3.014,1.278 l 0,0 c 0.464,0.18 0.931,0.351 1.391,0.519 l 0,0 c 1.087,0.387 2.178,0.746 3.268,1.047 l 0,0 c 0.37,0.104 0.743,0.191 1.112,0.284 l 0,0 c 0.961,0.244 1.919,0.453 2.878,0.632 l 0,0 c 0.412,0.075 0.823,0.155 1.232,0.218 l 0,0 c 1.177,0.184 2.353,0.326 3.523,0.41 l 0,0 c 0.316,0.02 0.623,0.025 0.943,0.039 l 0,0 c 0.87,0.038 1.737,0.038 2.596,0.021 l 0,0 c 0.062,-10e-4 0.126,0 0.19,0.002 l 0,0 c 0.068,0.002 0.137,0.004 0.204,0.002 l 0,0 c 0.312,-0.007 0.623,-0.007 0.929,-0.025 l 0,0 c 1.188,-0.064 2.37,-0.191 3.535,-0.371 l 0,0 c 0.287,-0.044 0.572,-0.103 0.854,-0.157 l 0,0 c 1.063,-0.187 2.115,-0.423 3.147,-0.717 l 0,0 c 0.176,-0.048 0.356,-0.084 0.523,-0.134 l 0,0 c 1.159,-0.346 2.291,-0.771 3.405,-1.245 l 0,0 c 0.263,-0.111 0.518,-0.229 0.774,-0.343 l 0,0 c 1.134,-0.517 2.245,-1.074 3.323,-1.729 l 0,0 c 1.072,-0.648 2.068,-1.369 3.034,-2.121 l 0,0 c 0.24,-0.191 0.48,-0.384 0.718,-0.579 l 0,0 c 0.796,-0.665 1.569,-1.359 2.289,-2.091 l 0,0 c 0.211,-0.21 0.423,-0.42 0.623,-0.633 l 0,0 c 0.565,-0.606 1.114,-1.221 1.635,-1.865 l 0,0 c -0.029,0.022 -0.069,0.042 -0.101,0.065 l 0,0 c 2.497,-3.044 4.455,-6.55 5.907,-10.383 l 0,0 0.356,0 15.47,0 c 0.126,0.182 0.251,0.363 0.386,0.543 l 0,0 c 0.172,0.237 0.355,0.485 0.526,0.724 l 0,0 c 0.807,1.076 1.661,2.093 2.502,3.13 l 0,0 c 0.44,0.55 0.872,1.107 1.316,1.654 l 0,0 c 0.098,0.121 0.191,0.247 0.291,0.367 l 0,0 c 0.079,0.094 0.151,0.2 0.234,0.298 l 0,0 c 0.037,0.043 0.076,0.088 0.113,0.132 l 0,0 c 0.239,0.285 0.48,0.566 0.728,0.858 l 0,0 c 0.245,0.286 0.502,0.553 0.749,0.837 l 0,0 c 0.91,1.053 1.831,2.083 2.765,3.095 l 0,0 c 0.2,0.219 0.392,0.452 0.595,0.668 l 0,0 c 0.045,0.049 0.091,0.099 0.135,0.148 l 0,0 c 0.132,0.147 0.262,0.296 0.396,0.434 l 0,0 c 0.076,0.075 0.144,0.141 0.216,0.214 l 0,0 c 0.643,0.678 1.306,1.311 1.964,1.97 l 0,0 c 0.939,0.951 1.864,1.925 2.823,2.836 l 0,0 c 0.035,0.031 0.075,0.069 0.12,0.1 l 0,0 c 0.502,0.482 1.023,0.91 1.532,1.372 l 0,0 c 0.836,0.773 1.671,1.535 2.527,2.274 l 0,0 c 0.36,0.319 0.712,0.658 1.078,0.969 l 0,0 c 0.092,0.071 0.18,0.149 0.27,0.216 l 0,0 c 1.089,0.924 2.201,1.766 3.309,2.635 l 0,0 c 0.985,0.774 1.975,1.558 2.973,2.294 l 0,0 c 1.605,1.173 3.203,2.325 4.834,3.39 l 0,0 c 0.285,0.187 0.575,0.35 0.853,0.532 l 0,0 c 0.869,0.565 1.754,1.101 2.635,1.633 l 0,0 c 1.643,0.999 3.3,1.943 4.969,2.831 l 0,0 c 0.916,0.489 1.812,0.976 2.724,1.433 l 0,0 c 1.923,0.952 3.861,1.827 5.798,2.645 l 0,0 c 0.893,0.368 1.787,0.73 2.684,1.073 l 0,0 c 2.083,0.796 4.174,1.542 6.274,2.173 l 0,0 c 0.71,0.211 1.432,0.387 2.146,0.585 l 0,0 c 1.846,0.5 3.687,0.935 5.534,1.306 l 0,0 c 0.792,0.159 1.583,0.319 2.375,0.451 l 0,0 c 1.411,0.237 2.817,0.426 4.222,0.588 l 0,0 c 1.59,0.23 3.174,0.431 4.75,0.55 l 0,0 c -1.568,-0.122 -3.146,-0.32 -4.727,-0.549 l 0,0 c 0.841,0.098 1.683,0.196 2.521,0.259 l 0,0 c 0.61,0.045 1.206,0.05 1.817,0.079 l 0,0 c 1.928,0.098 3.853,0.119 5.757,0.055 l 0,0 c 0.591,-0.018 1.183,-0.018 1.774,-0.055 l 0,0 c 2.294,-0.132 4.559,-0.392 6.805,-0.769 l 0,0 c 0.549,-0.091 1.1,-0.209 1.648,-0.318 l 0,0 c 2.044,-0.391 4.063,-0.883 6.056,-1.484 l 0,0 c 0.33,-0.099 0.672,-0.172 0.993,-0.282 l 0,0 c 2.237,-0.714 4.41,-1.592 6.557,-2.571 l 0,0 c 0.502,-0.23 1,-0.473 1.491,-0.712 l 0,0 c 2.174,-1.07 4.315,-2.225 6.382,-3.577 l 0,0 c 2.06,-1.34 3.978,-2.834 5.842,-4.391 l 0,0 c 0.467,-0.393 0.921,-0.791 1.378,-1.198 l 0,0 c 1.532,-1.365 3.009,-2.811 4.411,-4.324 l 0,0 c 0.402,-0.434 0.809,-0.862 1.192,-1.307 l 0,0 c 0.591,-0.674 1.152,-1.379 1.703,-2.092 l 0,0 c 0.48,-0.591 0.985,-1.16 1.442,-1.769 l 0,0 c -0.061,0.049 -0.131,0.088 -0.199,0.137 l 0,0 c 4.932,-6.465 8.793,-13.916 11.602,-22.09 l 0,0 61.697,0 c -6.091,17.253 -14.353,30.906 -23.951,42.09 l 0,0 c -6.509,8.02 -14.044,15.117 -22.78,20.814 l 0,0 c -15.285,9.975 -32.546,14.698 -50.401,14.699 l 0,0 c -29.881,10e-4 -61.429,-13.227 -88.195,-37.207 m 66.735,6.696 c -1.899,0.062 -3.817,0.045 -5.739,-0.054 l 0,0 c 1.922,0.099 3.844,0.119 5.739,0.054 m 10.196,-1.142 c 2.039,-0.391 4.052,-0.882 6.038,-1.483 l 0,0 c -1.986,0.601 -3.999,1.088 -6.038,1.483" /></g></g></g></g></g></svg>