<?xml version="1.0" encoding="UTF-8" standalone="no"?>
<svg
   xmlns:dc="http://purl.org/dc/elements/1.1/"
   xmlns:cc="http://creativecommons.org/ns#"
   xmlns:rdf="http://www.w3.org/1999/02/22-rdf-syntax-ns#"
   xmlns:svg="http://www.w3.org/2000/svg"
   xmlns="http://www.w3.org/2000/svg"
   viewBox="0 0 990 765"
   height="765"
   width="990"
   xml:space="preserve"
   version="1.1"
   id="svg2"><metadata
     id="metadata8"><rdf:RDF><cc:Work
         rdf:about=""><dc:format>image/svg+xml</dc:format><dc:type
           rdf:resource="http://purl.org/dc/dcmitype/StillImage" /></cc:Work></rdf:RDF></metadata><defs
     id="defs6"><clipPath
       id="clipPath16"
       clipPathUnits="userSpaceOnUse"><path
         id="path18"
         d="M 0,612 792,612 792,0 0,0 0,612 Z" /></clipPath></defs><g
     transform="matrix(1.25,0,0,-1.25,0,765)"
     id="g10"><g
       id="g12"><g
         clip-path="url(#clipPath16)"
         id="g14"><g
           transform="translate(86.2026,342.3013)"
           id="g20"><path
             id="path22"
             style="fill:#606163;fill-opacity:1;fill-rule:nonzero;stroke:none"
             d="m 0,0 c -3.721,2.635 -7.999,3.578 -14.51,3.578 l -11.719,0 0,-34.835 11.719,0 c 6.511,0 10.789,0.94 14.51,3.579 3.535,2.636 6.138,7.343 6.138,13.933 C 6.138,-7.155 3.535,-2.637 0,0 m 23.252,-45.003 c -8.556,-7.156 -20.275,-9.79 -33.483,-9.79 l -15.813,0 0,-48.012 -30.134,0 0,129.919 45.947,0 c 13.208,0 24.927,-2.638 33.483,-9.792 8.559,-7.154 13.395,-17.134 13.395,-31.067 0,-13.933 -4.836,-23.914 -13.395,-31.258" /></g><g
           transform="translate(172.1147,312.0249)"
           id="g24"><path
             id="path26"
             style="fill:#606163;fill-opacity:1;fill-rule:nonzero;stroke:none"
             d="m 0,0 c -2.604,1.98 -5.989,2.376 -10.806,2.376 l -8.333,0 0,-23.363 8.333,0 c 4.817,0 8.202,0.527 10.806,2.508 2.734,1.979 4.558,4.485 4.558,9.24 C 4.558,-4.62 2.734,-1.981 0,0 m 30.99,-72.201 -24.479,0 -18.88,34.845 -6.639,0 0,-34.845 -21.094,0 0,91.076 32.291,0 c 10.025,0 17.837,-2.112 23.697,-6.466 5.99,-4.491 9.895,-11.75 9.895,-20.857 0,-17.292 -10.937,-24.023 -17.577,-26.135 L 30.99,-72.201 Z" /></g><g
           transform="translate(253.231,314.3623)"
           id="g28"><path
             id="path30"
             style="fill:#606163;fill-opacity:1;fill-rule:nonzero;stroke:none"
             d="m 0,0 c -14.972,0 -26.301,-10.805 -26.301,-27.993 0,-17.184 11.329,-28.124 26.301,-28.124 14.975,0 26.301,10.94 26.301,28.124 C 26.301,-10.937 14.975,0 0,0 m 0,-74.864 c -26.69,0 -47.653,17.315 -47.653,46.352 0,29.034 20.963,46.481 47.653,46.481 26.693,0 47.654,-17.447 47.654,-46.481 0,-29.037 -20.961,-46.352 -47.654,-46.352" /></g><g
           transform="translate(370.6426,313.9624)"
           id="g32"><path
             id="path34"
             style="fill:#606163;fill-opacity:1;fill-rule:nonzero;stroke:none"
             d="m 0,0 -23.176,0 0,-74.367 -21.093,0 0,74.367 -23.176,0 0,16.938 L 0,16.938 0,0 Z" /></g><g
           transform="translate(419.6064,314.3623)"
           id="g36"><path
             id="path38"
             style="fill:#606163;fill-opacity:1;fill-rule:nonzero;stroke:none"
             d="m 0,0 c -14.974,0 -26.302,-10.805 -26.302,-27.993 0,-17.184 11.328,-28.124 26.302,-28.124 14.973,0 26.3,10.94 26.3,28.124 C 26.3,-10.937 14.973,0 0,0 m 0,-74.864 c -26.691,0 -47.654,17.315 -47.654,46.352 0,29.034 20.963,46.481 47.654,46.481 26.691,0 47.652,-17.447 47.652,-46.481 0,-29.037 -20.961,-46.352 -47.652,-46.352" /></g><path
           id="path40"
           style="fill:#00b1f0;fill-opacity:1;fill-rule:nonzero;stroke:none"
           d="m 508.755,239.849 -30.134,0 0,129.566 30.134,0 0,-129.566 z" /><g
           transform="translate(582.2383,342.375)"
           id="g42"><path
             id="path44"
             style="fill:#00b1f0;fill-opacity:1;fill-rule:nonzero;stroke:none"
             d="m 0,0 c -3.72,2.628 -7.998,3.568 -14.509,3.568 l -11.72,0 0,-34.741 11.72,0 c 6.511,0 10.789,0.937 14.509,3.57 3.534,2.628 6.138,7.323 6.138,13.895 C 6.138,-7.136 3.534,-2.629 0,0 m 23.252,-44.882 c -8.556,-7.135 -20.275,-9.763 -33.482,-9.763 l -15.813,0 0,-47.881 -30.135,0 0,129.566 45.948,0 c 13.207,0 24.926,-2.63 33.482,-9.766 8.559,-7.134 13.394,-17.086 13.394,-30.982 0,-13.895 -4.835,-23.848 -13.394,-31.174" /></g><g
           transform="translate(693.6533,346.0552)"
           id="g46"><path
             id="path48"
             style="fill:#00b1f0;fill-opacity:1;fill-rule:nonzero;stroke:none"
             d="m 0,0 c -20.926,0 -36.754,-15.279 -36.754,-39.583 0,-24.297 15.828,-39.765 36.754,-39.765 20.926,0 36.755,15.468 36.755,39.765 C 36.755,-15.464 20.926,0 0,0 m 0,-105.856 c -37.301,0 -66.597,24.484 -66.597,65.54 0,41.052 29.296,65.721 66.597,65.721 37.301,0 66.598,-24.669 66.598,-65.721 0,-41.056 -29.297,-65.54 -66.598,-65.54" /></g></g></g></g></svg>